# xmcd CD database file
#
# Track frame offsets:
#	150
#	3107
#	15302
#	27298
#	55422
#	72435
#	79589
#
# Disc length: 1295 seconds
#
# Revision: 0
# Processed by: cddbd v1.5.2PL0 Copyright (c) Steve Scherf et al.
# Submitted via: CDex 1.70beta2
#
DISCID=47050d07
DTITLE=Maec Copland - Gary Peacock - What they say - extraits
DYEAR=2004
DGENRE=Jazz
TTITLE0=Introduction
TTITLE1=La rencontre
TTITLE2=La complicite
TTITLE3=Glad to be unhappy
TTITLE4=Elaboration du projet
TTITLE5=Vivre avec "what it says"
TTITLE6=Blue in green
EXTD=YEAR: 2004
EXTT0=
EXTT1=
EXTT2=
EXTT3=
EXTT4=
EXTT5=
EXTT6=
PLAYORDER=
